# MagicaVoxel @ Ephtracy

# group
o 

# material
mtllib moveObject.mtl
usemtl palette

# normals
vn -1 0 0
vn 1 0 0
vn 0 0 1
vn 0 0 -1
vn 0 -1 0
vn 0 1 0

# texcoords
vt 0.0332031 0.5
vt 0.0449219 0.5
vt 0.0917969 0.5
vt 0.123047 0.5
vt 0.876953 0.5

# verts
v -0.5 0.7 0.1
v -0.5 0.7 -0.3
v -0.5 0.8 0.1
v -0.5 0.8 -0.3
v -0.3 0 0.4
v -0.3 0 -0.3
v -0.3 0.1 0.4
v -0.3 0.1 0.1
v -0.3 0.1 -0.3
v -0.3 0.2 0.1
v -0.3 0.2 -0.3
v -0.3 0.7 0.2
v -0.3 0.7 0.1
v -0.3 0.8 0.2
v -0.3 0.8 0.1
v -0.2 0.1 0.2
v -0.2 0.1 0.1
v -0.2 0.2 0.2
v -0.2 0.2 0.1
v -0.2 0.2 -0.1
v -0.2 0.2 -0.2
v -0.2 0.2 -0.3
v -0.2 0.3 0.1
v -0.2 0.3 -0.1
v -0.2 0.3 -0.2
v -0.2 0.3 -0.3
v -0.2 0.7 0.3
v -0.2 0.7 0.2
v -0.2 0.8 0.3
v -0.2 0.8 0.2
v -0.2 0.8 0
v -0.2 0.8 -0.3
v -0.2 0.9 0
v -0.2 0.9 -0.2
v -0.2 1 -0.2
v -0.2 1 -0.3
v -0.1 0.3 0
v -0.1 0.3 -0.1
v -0.1 0.3 -0.2
v -0.1 0.3 -0.3
v -0.1 0.7 0.5
v -0.1 0.7 0.3
v -0.1 0.7 0
v -0.1 0.7 -0.3
v -0.1 0.8 0.5
v -0.1 0.8 0.3
v -0.1 0.9 0
v -0.1 0.9 -0.2
v -0.1 1 0
v -0.1 1 -0.2
v 0.1 0.3 0
v 0.1 0.3 -0.3
v 0.1 0.7 0.5
v 0.1 0.7 0.3
v 0.1 0.7 0
v 0.1 0.7 -0.3
v 0.1 0.8 0.5
v 0.1 0.8 0.3
v 0.1 0.9 0
v 0.1 0.9 -0.2
v 0.1 1 0
v 0.1 1 -0.2
v 0.2 0.1 0.2
v 0.2 0.1 0.1
v 0.2 0.2 0.2
v 0.2 0.2 0.1
v 0.2 0.2 -0.3
v 0.2 0.3 0.1
v 0.2 0.3 -0.3
v 0.2 0.7 0.3
v 0.2 0.7 0.2
v 0.2 0.8 0.3
v 0.2 0.8 0.2
v 0.2 0.8 0
v 0.2 0.8 -0.3
v 0.2 0.9 0
v 0.2 0.9 -0.2
v 0.2 1 -0.2
v 0.2 1 -0.3
v 0.3 0 0.4
v 0.3 0 -0.3
v 0.3 0.1 0.4
v 0.3 0.1 0.1
v 0.3 0.1 -0.3
v 0.3 0.2 0.1
v 0.3 0.2 -0.3
v 0.3 0.7 0.2
v 0.3 0.7 0.1
v 0.3 0.8 0.2
v 0.3 0.8 0.1
v 0.5 0.7 0.1
v 0.5 0.7 -0.3
v 0.5 0.8 0.1
v 0.5 0.8 -0.3
v -0.1 0.7 0.5
v -0.1 0.8 0.5
v 0.1 0.7 0.5
v 0.1 0.8 0.5
v -0.3 0 0.4
v -0.3 0.1 0.4
v 0.3 0 0.4
v 0.3 0.1 0.4
v -0.2 0.7 0.3
v -0.2 0.8 0.3
v -0.1 0.7 0.3
v -0.1 0.8 0.3
v 0.1 0.7 0.3
v 0.1 0.8 0.3
v 0.2 0.7 0.3
v 0.2 0.8 0.3
v -0.3 0.7 0.2
v -0.3 0.8 0.2
v -0.2 0.1 0.2
v -0.2 0.2 0.2
v -0.2 0.7 0.2
v -0.2 0.8 0.2
v 0.2 0.1 0.2
v 0.2 0.2 0.2
v 0.2 0.7 0.2
v 0.2 0.8 0.2
v 0.3 0.7 0.2
v 0.3 0.8 0.2
v -0.5 0.7 0.1
v -0.5 0.8 0.1
v -0.4 0.7 0.1
v -0.4 0.8 0.1
v -0.3 0.1 0.1
v -0.3 0.2 0.1
v -0.3 0.7 0.1
v -0.3 0.8 0.1
v -0.2 0.1 0.1
v -0.2 0.2 0.1
v -0.2 0.3 0.1
v 0.2 0.1 0.1
v 0.2 0.2 0.1
v 0.2 0.3 0.1
v 0.3 0.1 0.1
v 0.3 0.2 0.1
v 0.3 0.7 0.1
v 0.3 0.8 0.1
v 0.4 0.7 0.1
v 0.4 0.8 0.1
v 0.5 0.7 0.1
v 0.5 0.8 0.1
v -0.2 0.8 0
v -0.2 0.9 0
v -0.1 0.3 0
v -0.1 0.7 0
v -0.1 0.9 0
v -0.1 1 0
v 0.1 0.3 0
v 0.1 0.7 0
v 0.1 0.9 0
v 0.1 1 0
v 0.2 0.8 0
v 0.2 0.9 0
v -0.2 0.9 -0.2
v -0.2 1 -0.2
v -0.1 0.9 -0.2
v -0.1 1 -0.2
v 0.1 0.9 -0.2
v 0.1 1 -0.2
v 0.2 0.9 -0.2
v 0.2 1 -0.2
v -0.5 0.7 -0.3
v -0.5 0.8 -0.3
v -0.4 0.7 -0.3
v -0.4 0.8 -0.3
v -0.3 0 -0.3
v -0.3 0.1 -0.3
v -0.3 0.2 -0.3
v -0.2 0.2 -0.3
v -0.2 0.3 -0.3
v -0.2 0.8 -0.3
v -0.2 1 -0.3
v -0.1 0.3 -0.3
v -0.1 0.7 -0.3
v 0.1 0.3 -0.3
v 0.1 0.7 -0.3
v 0.2 0.2 -0.3
v 0.2 0.3 -0.3
v 0.2 0.8 -0.3
v 0.2 1 -0.3
v 0.3 0 -0.3
v 0.3 0.1 -0.3
v 0.3 0.2 -0.3
v 0.4 0.7 -0.3
v 0.4 0.8 -0.3
v 0.5 0.7 -0.3
v 0.5 0.8 -0.3
v -0.3 0 0.4
v 0.3 0 0.4
v -0.3 0 -0.3
v 0.3 0 -0.3
v -0.1 0.7 0.5
v 0.1 0.7 0.5
v -0.2 0.7 0.3
v -0.1 0.7 0.3
v 0.1 0.7 0.3
v 0.2 0.7 0.3
v -0.3 0.7 0.2
v -0.2 0.7 0.2
v 0.2 0.7 0.2
v 0.3 0.7 0.2
v -0.5 0.7 0.1
v -0.4 0.7 0.1
v -0.3 0.7 0.1
v 0.3 0.7 0.1
v 0.4 0.7 0.1
v 0.5 0.7 0.1
v -0.1 0.7 0
v 0.1 0.7 0
v -0.5 0.7 -0.3
v -0.4 0.7 -0.3
v -0.1 0.7 -0.3
v 0.1 0.7 -0.3
v 0.4 0.7 -0.3
v 0.5 0.7 -0.3
v -0.3 0.1 0.4
v 0.3 0.1 0.4
v -0.2 0.1 0.2
v 0.2 0.1 0.2
v -0.3 0.1 0.1
v -0.2 0.1 0.1
v 0.2 0.1 0.1
v 0.3 0.1 0.1
v -0.2 0.2 0.2
v 0.2 0.2 0.2
v -0.3 0.2 0.1
v -0.2 0.2 0.1
v 0.2 0.2 0.1
v 0.3 0.2 0.1
v -0.2 0.2 -0.1
v -0.2 0.2 -0.2
v -0.3 0.2 -0.3
v -0.2 0.2 -0.3
v 0.2 0.2 -0.3
v 0.3 0.2 -0.3
v -0.2 0.3 0.1
v 0.2 0.3 0.1
v -0.1 0.3 0
v 0.1 0.3 0
v -0.2 0.3 -0.1
v -0.1 0.3 -0.1
v -0.2 0.3 -0.2
v -0.1 0.3 -0.2
v -0.2 0.3 -0.3
v -0.1 0.3 -0.3
v 0.1 0.3 -0.3
v 0.2 0.3 -0.3
v -0.1 0.8 0.5
v 0.1 0.8 0.5
v -0.2 0.8 0.3
v -0.1 0.8 0.3
v 0.1 0.8 0.3
v 0.2 0.8 0.3
v -0.3 0.8 0.2
v -0.2 0.8 0.2
v 0.2 0.8 0.2
v 0.3 0.8 0.2
v -0.5 0.8 0.1
v -0.4 0.8 0.1
v -0.3 0.8 0.1
v 0.3 0.8 0.1
v 0.4 0.8 0.1
v 0.5 0.8 0.1
v -0.2 0.8 0
v 0.2 0.8 0
v -0.5 0.8 -0.3
v -0.4 0.8 -0.3
v -0.2 0.8 -0.3
v 0.2 0.8 -0.3
v 0.4 0.8 -0.3
v 0.5 0.8 -0.3
v -0.2 0.9 0
v -0.1 0.9 0
v 0.1 0.9 0
v 0.2 0.9 0
v -0.2 0.9 -0.2
v -0.1 0.9 -0.2
v 0.1 0.9 -0.2
v 0.2 0.9 -0.2
v -0.1 1 0
v 0.1 1 0
v -0.2 1 -0.2
v -0.1 1 -0.2
v 0.1 1 -0.2
v 0.2 1 -0.2
v -0.2 1 -0.3
v 0.2 1 -0.3

# faces
f 3/1/1 2/1/1 1/1/1
f 4/1/1 2/1/1 3/1/1
f 7/2/1 6/2/1 5/2/1
f 8/2/1 6/2/1 7/2/1
f 9/2/1 6/2/1 8/2/1
f 10/5/1 9/5/1 8/5/1
f 11/5/1 9/5/1 10/5/1
f 14/5/1 13/5/1 12/5/1
f 15/5/1 13/5/1 14/5/1
f 18/5/1 17/5/1 16/5/1
f 19/5/1 17/5/1 18/5/1
f 23/5/1 20/5/1 19/5/1
f 24/4/1 21/4/1 20/4/1
f 24/5/1 20/5/1 23/5/1
f 25/5/1 22/5/1 21/5/1
f 25/4/1 21/4/1 24/4/1
f 26/5/1 22/5/1 25/5/1
f 29/5/1 28/5/1 27/5/1
f 30/5/1 28/5/1 29/5/1
f 33/5/1 32/5/1 31/5/1
f 34/5/1 32/5/1 33/5/1
f 35/5/1 32/5/1 34/5/1
f 36/5/1 32/5/1 35/5/1
f 43/5/1 38/5/1 37/5/1
f 43/5/1 39/5/1 38/5/1
f 43/5/1 40/5/1 39/5/1
f 44/5/1 40/5/1 43/5/1
f 45/5/1 42/5/1 41/5/1
f 46/5/1 42/5/1 45/5/1
f 49/5/1 48/5/1 47/5/1
f 50/5/1 48/5/1 49/5/1
f 51/5/2 52/5/2 55/5/2
f 55/5/2 52/5/2 56/5/2
f 53/5/2 54/5/2 57/5/2
f 57/5/2 54/5/2 58/5/2
f 59/5/2 60/5/2 61/5/2
f 61/5/2 60/5/2 62/5/2
f 63/5/2 64/5/2 65/5/2
f 65/5/2 64/5/2 66/5/2
f 66/5/2 67/5/2 68/5/2
f 68/5/2 67/5/2 69/5/2
f 70/5/2 71/5/2 72/5/2
f 72/5/2 71/5/2 73/5/2
f 74/5/2 75/5/2 76/5/2
f 76/5/2 75/5/2 77/5/2
f 77/5/2 75/5/2 78/5/2
f 78/5/2 75/5/2 79/5/2
f 80/2/2 81/2/2 82/2/2
f 82/2/2 81/2/2 83/2/2
f 83/2/2 81/2/2 84/2/2
f 83/5/2 84/5/2 85/5/2
f 85/5/2 84/5/2 86/5/2
f 87/5/2 88/5/2 89/5/2
f 89/5/2 88/5/2 90/5/2
f 91/3/2 92/3/2 93/3/2
f 93/3/2 92/3/2 94/3/2
f 97/5/3 96/5/3 95/5/3
f 98/5/3 96/5/3 97/5/3
f 101/2/3 100/2/3 99/2/3
f 102/2/3 100/2/3 101/2/3
f 105/5/3 104/5/3 103/5/3
f 106/5/3 104/5/3 105/5/3
f 109/5/3 108/5/3 107/5/3
f 110/5/3 108/5/3 109/5/3
f 115/5/3 112/5/3 111/5/3
f 116/5/3 112/5/3 115/5/3
f 117/5/3 114/5/3 113/5/3
f 118/5/3 114/5/3 117/5/3
f 121/5/3 120/5/3 119/5/3
f 122/5/3 120/5/3 121/5/3
f 125/1/3 124/1/3 123/1/3
f 126/1/3 124/1/3 125/1/3
f 129/5/3 126/5/3 125/5/3
f 130/5/3 126/5/3 129/5/3
f 131/5/3 128/5/3 127/5/3
f 132/5/3 128/5/3 131/5/3
f 135/5/3 133/5/3 132/5/3
f 136/5/3 133/5/3 135/5/3
f 137/5/3 135/5/3 134/5/3
f 138/5/3 135/5/3 137/5/3
f 141/5/3 140/5/3 139/5/3
f 142/5/3 140/5/3 141/5/3
f 143/3/3 142/3/3 141/3/3
f 144/3/3 142/3/3 143/3/3
f 149/5/3 146/5/3 145/5/3
f 151/5/3 148/5/3 147/5/3
f 152/5/3 148/5/3 151/5/3
f 153/5/3 150/5/3 149/5/3
f 153/5/3 149/5/3 145/5/3
f 154/5/3 150/5/3 153/5/3
f 155/5/3 153/5/3 145/5/3
f 156/5/3 153/5/3 155/5/3
f 159/5/3 158/5/3 157/5/3
f 160/5/3 158/5/3 159/5/3
f 163/5/3 162/5/3 161/5/3
f 164/5/3 162/5/3 163/5/3
f 165/1/4 166/1/4 167/1/4
f 167/1/4 166/1/4 168/1/4
f 170/5/4 171/5/4 172/5/4
f 167/5/4 168/5/4 174/5/4
f 172/5/4 173/5/4 176/5/4
f 174/5/4 175/5/4 177/5/4
f 167/5/4 174/5/4 177/5/4
f 172/5/4 176/5/4 178/5/4
f 176/5/4 177/5/4 178/5/4
f 177/5/4 175/5/4 179/5/4
f 178/5/4 177/5/4 179/5/4
f 172/5/4 178/5/4 180/5/4
f 170/5/4 172/5/4 180/5/4
f 180/5/4 178/5/4 181/5/4
f 179/5/4 175/5/4 182/5/4
f 182/5/4 175/5/4 183/5/4
f 169/2/4 170/2/4 184/2/4
f 170/5/4 180/5/4 185/5/4
f 184/2/4 170/2/4 185/2/4
f 185/5/4 180/5/4 186/5/4
f 179/5/4 182/5/4 187/5/4
f 187/5/4 182/5/4 188/5/4
f 187/3/4 188/3/4 189/3/4
f 189/3/4 188/3/4 190/3/4
f 193/2/5 192/2/5 191/2/5
f 194/2/5 192/2/5 193/2/5
f 198/5/5 196/5/5 195/5/5
f 199/5/5 196/5/5 198/5/5
f 202/5/5 198/5/5 197/5/5
f 202/5/5 200/5/5 199/5/5
f 202/5/5 199/5/5 198/5/5
f 203/5/5 200/5/5 202/5/5
f 207/5/5 202/5/5 201/5/5
f 207/5/5 203/5/5 202/5/5
f 207/5/5 204/5/5 203/5/5
f 208/5/5 204/5/5 207/5/5
f 211/5/5 207/5/5 206/5/5
f 211/5/5 208/5/5 207/5/5
f 211/5/5 209/5/5 208/5/5
f 212/5/5 209/5/5 211/5/5
f 213/1/5 206/1/5 205/1/5
f 214/5/5 211/5/5 206/5/5
f 214/1/5 206/1/5 213/1/5
f 215/5/5 211/5/5 214/5/5
f 216/5/5 209/5/5 212/5/5
f 217/3/5 210/3/5 209/3/5
f 217/5/5 209/5/5 216/5/5
f 218/3/5 210/3/5 217/3/5
f 219/2/6 220/2/6 221/2/6
f 221/2/6 220/2/6 222/2/6
f 219/2/6 221/2/6 223/2/6
f 223/2/6 221/2/6 224/2/6
f 222/2/6 220/2/6 225/2/6
f 225/2/6 220/2/6 226/2/6
f 227/5/6 228/5/6 230/5/6
f 230/5/6 228/5/6 231/5/6
f 229/5/6 230/5/6 233/5/6
f 229/5/6 233/5/6 234/5/6
f 229/5/6 234/5/6 235/5/6
f 235/5/6 234/5/6 236/5/6
f 231/5/6 232/5/6 237/5/6
f 237/5/6 232/5/6 238/5/6
f 239/5/6 240/5/6 241/5/6
f 241/5/6 240/5/6 242/5/6
f 239/5/6 241/5/6 243/5/6
f 243/5/6 241/5/6 244/5/6
f 243/4/6 244/4/6 245/4/6
f 245/4/6 244/4/6 246/4/6
f 245/5/6 246/5/6 247/5/6
f 247/5/6 246/5/6 248/5/6
f 242/5/6 240/5/6 249/5/6
f 249/5/6 240/5/6 250/5/6
f 251/5/6 252/5/6 254/5/6
f 254/5/6 252/5/6 255/5/6
f 253/5/6 254/5/6 258/5/6
f 255/5/6 256/5/6 258/5/6
f 254/5/6 255/5/6 258/5/6
f 258/5/6 256/5/6 259/5/6
f 257/5/6 258/5/6 263/5/6
f 258/5/6 259/5/6 263/5/6
f 259/5/6 260/5/6 263/5/6
f 263/5/6 260/5/6 264/5/6
f 262/5/6 263/5/6 267/5/6
f 263/5/6 264/5/6 267/5/6
f 264/5/6 265/5/6 267/5/6
f 267/5/6 265/5/6 268/5/6
f 261/1/6 262/1/6 269/1/6
f 262/5/6 267/5/6 270/5/6
f 269/1/6 262/1/6 270/1/6
f 270/5/6 267/5/6 271/5/6
f 268/5/6 265/5/6 272/5/6
f 265/3/6 266/3/6 273/3/6
f 272/5/6 265/5/6 273/5/6
f 273/3/6 266/3/6 274/3/6
f 275/5/6 276/5/6 279/5/6
f 279/5/6 276/5/6 280/5/6
f 277/5/6 278/5/6 281/5/6
f 281/5/6 278/5/6 282/5/6
f 283/5/6 284/5/6 286/5/6
f 286/5/6 284/5/6 287/5/6
f 285/5/6 286/5/6 289/5/6
f 287/5/6 288/5/6 289/5/6
f 286/5/6 287/5/6 289/5/6
f 289/5/6 288/5/6 290/5/6
