# MagicaVoxel @ Ephtracy

# group
o 

# material
mtllib Tile.mtl
usemtl palette

# normals
vn -1 0 0
vn 1 0 0
vn 0 0 1
vn 0 0 -1
vn 0 -1 0
vn 0 1 0

# texcoords
vt 0.0253906 0.5
vt 0.0332031 0.5
vt 0.306641 0.5
vt 0.748047 0.5
vt 0.771484 0.5

# verts
v -0.5 0 0.5
v -0.5 0 0.1
v -0.5 0 0
v -0.5 0 -0.5
v -0.5 0.1 0.4
v -0.5 0.1 0.3
v -0.5 0.1 0.1
v -0.5 0.1 0
v -0.5 0.2 0.4
v -0.5 0.2 0.3
v -0.5 0.2 0
v -0.5 0.2 -0.1
v -0.5 0.2 -0.2
v -0.5 0.2 -0.3
v -0.5 0.3 0.5
v -0.5 0.3 0.4
v -0.5 0.3 0.3
v -0.5 0.3 0.2
v -0.5 0.3 -0.2
v -0.5 0.3 -0.3
v -0.5 0.4 0.5
v -0.5 0.4 0.4
v -0.5 0.4 0.3
v -0.5 0.4 0.2
v -0.5 0.4 0
v -0.5 0.4 -0.1
v -0.5 0.4 -0.4
v -0.5 0.4 -0.5
v -0.5 0.5 0.3
v -0.5 0.5 0.2
v -0.5 0.5 -0.4
v -0.5 0.5 -0.5
v -0.5 0.6 0.5
v -0.5 0.6 0.4
v -0.5 0.6 0.3
v -0.5 0.6 0.2
v -0.5 0.6 0
v -0.5 0.6 -0.2
v -0.5 0.6 -0.3
v -0.5 0.6 -0.4
v -0.5 0.7 0.5
v -0.5 0.7 0.4
v -0.5 0.7 0.3
v -0.5 0.7 0.2
v -0.5 0.7 -0.2
v -0.5 0.7 -0.3
v -0.5 0.7 -0.4
v -0.5 0.7 -0.5
v -0.5 0.8 0.4
v -0.5 0.8 0.3
v -0.5 0.8 0.2
v -0.5 0.8 0.1
v -0.5 0.8 0
v -0.5 0.8 -0.1
v -0.5 0.8 -0.4
v -0.5 0.8 -0.5
v -0.5 0.9 0.4
v -0.5 0.9 0.3
v -0.5 0.9 0
v -0.5 0.9 -0.1
v -0.5 0.9 -0.2
v -0.5 0.9 -0.3
v -0.5 1 0.5
v -0.5 1 0.1
v -0.5 1 0
v -0.5 1 -0.5
v 0.5 0 0.5
v 0.5 0 -0.5
v 0.5 0.1 0.4
v 0.5 0.1 0.3
v 0.5 0.2 0.4
v 0.5 0.2 0.3
v 0.5 0.2 0.2
v 0.5 0.2 -0.1
v 0.5 0.2 -0.2
v 0.5 0.3 0.3
v 0.5 0.3 0.2
v 0.5 0.3 -0.1
v 0.5 0.3 -0.2
v 0.5 0.3 -0.3
v 0.5 0.3 -0.4
v 0.5 0.4 -0.2
v 0.5 0.4 -0.3
v 0.5 0.4 -0.4
v 0.5 0.5 0.5
v 0.5 0.5 0.4
v 0.5 0.5 -0.2
v 0.5 0.5 -0.3
v 0.5 0.6 0.4
v 0.5 0.6 0.3
v 0.5 0.6 0.2
v 0.5 0.6 0
v 0.5 0.6 -0.2
v 0.5 0.6 -0.5
v 0.5 0.7 0.4
v 0.5 0.7 0.3
v 0.5 0.7 0.2
v 0.5 0.7 0
v 0.5 0.7 -0.1
v 0.5 0.7 -0.3
v 0.5 0.7 -0.4
v 0.5 0.8 0.4
v 0.5 0.8 0.3
v 0.5 0.8 -0.1
v 0.5 0.8 -0.2
v 0.5 0.8 -0.3
v 0.5 0.8 -0.4
v 0.5 0.8 -0.5
v 0.5 0.9 0.2
v 0.5 0.9 0
v 0.5 0.9 -0.2
v 0.5 0.9 -0.4
v 0.5 0.9 -0.5
v 0.5 1 0.5
v 0.5 1 -0.2
v 0.5 1 -0.4
v 0.5 1 -0.5
v -0.5 0 0.5
v -0.5 0.3 0.5
v -0.5 0.4 0.5
v -0.5 0.6 0.5
v -0.5 0.7 0.5
v -0.5 1 0.5
v -0.4 0.3 0.5
v -0.4 0.4 0.5
v -0.4 0.6 0.5
v -0.4 0.7 0.5
v -0.4 0.8 0.5
v -0.4 0.9 0.5
v -0.3 0.3 0.5
v -0.3 0.4 0.5
v -0.3 0.7 0.5
v -0.3 0.8 0.5
v -0.2 0.7 0.5
v -0.2 0.8 0.5
v -0.1 0.3 0.5
v -0.1 0.4 0.5
v -0.1 0.6 0.5
v -0.1 0.7 0.5
v -0.1 0.8 0.5
v -0.1 0.9 0.5
v 0 0.6 0.5
v 0 0.7 0.5
v 0 0.8 0.5
v 0.1 0.5 0.5
v 0.1 0.7 0.5
v 0.1 0.8 0.5
v 0.1 0.9 0.5
v 0.2 0.5 0.5
v 0.2 0.6 0.5
v 0.2 0.7 0.5
v 0.2 0.9 0.5
v 0.3 0.6 0.5
v 0.3 0.7 0.5
v 0.3 0.9 0.5
v 0.4 0.5 0.5
v 0.4 0.7 0.5
v 0.4 0.9 0.5
v 0.5 0 0.5
v 0.5 0.5 0.5
v 0.5 1 0.5
v -0.5 0 -0.5
v -0.5 0.4 -0.5
v -0.5 0.5 -0.5
v -0.5 0.7 -0.5
v -0.5 0.8 -0.5
v -0.5 1 -0.5
v -0.4 0 -0.5
v -0.4 0.1 -0.5
v -0.4 0.3 -0.5
v -0.4 0.4 -0.5
v -0.4 0.5 -0.5
v -0.4 0.6 -0.5
v -0.4 0.7 -0.5
v -0.4 0.8 -0.5
v -0.3 0 -0.5
v -0.3 0.1 -0.5
v -0.3 0.3 -0.5
v -0.3 0.4 -0.5
v -0.3 0.6 -0.5
v -0.3 0.7 -0.5
v -0.3 0.8 -0.5
v -0.3 0.9 -0.5
v -0.2 0.2 -0.5
v -0.2 0.3 -0.5
v -0.2 0.6 -0.5
v -0.2 0.7 -0.5
v -0.2 0.8 -0.5
v -0.2 0.9 -0.5
v -0.1 0.2 -0.5
v -0.1 0.3 -0.5
v -0.1 0.7 -0.5
v -0.1 0.8 -0.5
v 0 0.4 -0.5
v 0 0.5 -0.5
v 0 0.6 -0.5
v 0 0.7 -0.5
v 0.1 0.4 -0.5
v 0.1 0.5 -0.5
v 0.1 0.6 -0.5
v 0.1 0.7 -0.5
v 0.1 0.8 -0.5
v 0.1 0.9 -0.5
v 0.3 0.1 -0.5
v 0.3 0.2 -0.5
v 0.3 0.4 -0.5
v 0.3 0.5 -0.5
v 0.3 0.6 -0.5
v 0.3 0.7 -0.5
v 0.3 0.8 -0.5
v 0.3 0.9 -0.5
v 0.4 0.1 -0.5
v 0.4 0.2 -0.5
v 0.4 0.4 -0.5
v 0.4 0.5 -0.5
v 0.4 0.6 -0.5
v 0.4 0.7 -0.5
v 0.4 0.8 -0.5
v 0.4 0.9 -0.5
v 0.5 0 -0.5
v 0.5 0.6 -0.5
v 0.5 0.8 -0.5
v 0.5 0.9 -0.5
v 0.5 1 -0.5
v -0.5 0 0.5
v 0.5 0 0.5
v -0.5 0 0.1
v -0.4 0 0.1
v -0.5 0 0
v -0.4 0 0
v -0.4 0 -0.4
v -0.3 0 -0.4
v -0.5 0 -0.5
v -0.4 0 -0.5
v -0.3 0 -0.5
v 0.5 0 -0.5
v -0.5 1 0.5
v 0.5 1 0.5
v -0.1 1 0.4
v 0.2 1 0.4
v 0.1 1 0.3
v 0.2 1 0.3
v -0.3 1 0.2
v -0.2 1 0.2
v -0.1 1 0.2
v 0.1 1 0.2
v -0.5 1 0.1
v -0.4 1 0.1
v -0.2 1 0.1
v -0.1 1 0.1
v 0.1 1 0.1
v 0.4 1 0.1
v -0.5 1 0
v -0.4 1 0
v -0.3 1 0
v -0.1 1 0
v 0.1 1 0
v 0.3 1 0
v 0.3 1 -0.1
v 0.4 1 -0.1
v -0.1 1 -0.2
v 0.1 1 -0.2
v 0.4 1 -0.2
v 0.5 1 -0.2
v -0.4 1 -0.3
v -0.2 1 -0.3
v -0.4 1 -0.4
v -0.2 1 -0.4
v -0.1 1 -0.4
v 0.1 1 -0.4
v 0.4 1 -0.4
v 0.5 1 -0.4
v -0.5 1 -0.5
v 0.5 1 -0.5

# faces
f 5/2/1 2/2/1 1/2/1
f 6/2/1 2/2/1 5/2/1
f 7/1/1 3/1/1 2/1/1
f 7/2/1 2/2/1 6/2/1
f 8/2/1 4/2/1 3/2/1
f 8/1/1 3/1/1 7/1/1
f 9/1/1 6/1/1 5/1/1
f 9/2/1 5/2/1 1/2/1
f 10/2/1 7/2/1 6/2/1
f 10/1/1 6/1/1 9/1/1
f 10/2/1 8/2/1 7/2/1
f 11/2/1 4/2/1 8/2/1
f 11/2/1 8/2/1 10/2/1
f 12/2/1 4/2/1 11/2/1
f 13/2/1 4/2/1 12/2/1
f 14/2/1 4/2/1 13/2/1
f 15/2/1 9/2/1 1/2/1
f 15/2/1 10/2/1 9/2/1
f 15/2/1 11/2/1 10/2/1
f 16/2/1 11/2/1 15/2/1
f 17/2/1 11/2/1 16/2/1
f 18/2/1 11/2/1 17/2/1
f 19/1/1 14/1/1 13/1/1
f 19/2/1 13/2/1 12/2/1
f 20/2/1 4/2/1 14/2/1
f 20/1/1 14/1/1 19/1/1
f 21/1/1 16/1/1 15/1/1
f 22/2/1 17/2/1 16/2/1
f 22/1/1 16/1/1 21/1/1
f 23/1/1 18/1/1 17/1/1
f 23/2/1 17/2/1 22/2/1
f 24/2/1 11/2/1 18/2/1
f 24/1/1 18/1/1 23/1/1
f 25/1/1 12/1/1 11/1/1
f 25/2/1 11/2/1 24/2/1
f 26/2/1 19/2/1 12/2/1
f 26/1/1 12/1/1 25/1/1
f 26/2/1 20/2/1 19/2/1
f 27/2/1 4/2/1 20/2/1
f 27/2/1 20/2/1 26/2/1
f 28/2/1 4/2/1 27/2/1
f 29/2/1 25/2/1 24/2/1
f 29/2/1 23/2/1 22/2/1
f 29/2/1 22/2/1 21/2/1
f 29/2/1 27/2/1 26/2/1
f 29/2/1 24/2/1 23/2/1
f 29/2/1 26/2/1 25/2/1
f 30/2/1 27/2/1 29/2/1
f 31/1/1 28/1/1 27/1/1
f 31/2/1 27/2/1 30/2/1
f 32/1/1 28/1/1 31/1/1
f 33/2/1 29/2/1 21/2/1
f 34/2/1 29/2/1 33/2/1
f 35/1/1 30/1/1 29/1/1
f 35/2/1 29/2/1 34/2/1
f 36/2/1 31/2/1 30/2/1
f 36/1/1 30/1/1 35/1/1
f 36/2/1 32/2/1 31/2/1
f 37/2/1 32/2/1 36/2/1
f 38/2/1 32/2/1 37/2/1
f 39/2/1 32/2/1 38/2/1
f 40/2/1 32/2/1 39/2/1
f 41/4/1 34/4/1 33/4/1
f 42/5/1 35/5/1 34/5/1
f 42/4/1 34/4/1 41/4/1
f 43/2/1 36/2/1 35/2/1
f 43/5/1 35/5/1 42/5/1
f 43/2/1 37/2/1 36/2/1
f 44/2/1 37/2/1 43/2/1
f 45/5/1 38/5/1 37/5/1
f 45/2/1 39/2/1 38/2/1
f 46/5/1 40/5/1 39/5/1
f 46/2/1 39/2/1 45/2/1
f 47/2/1 32/2/1 40/2/1
f 47/5/1 40/5/1 46/5/1
f 48/2/1 32/2/1 47/2/1
f 49/5/1 42/5/1 41/5/1
f 49/5/1 44/5/1 43/5/1
f 49/5/1 43/5/1 42/5/1
f 50/5/1 44/5/1 49/5/1
f 51/2/1 37/2/1 44/2/1
f 51/5/1 44/5/1 50/5/1
f 52/2/1 37/2/1 51/2/1
f 53/5/1 45/5/1 37/5/1
f 53/2/1 37/2/1 52/2/1
f 54/5/1 45/5/1 53/5/1
f 55/4/1 48/4/1 47/4/1
f 55/5/1 47/5/1 46/5/1
f 56/4/1 48/4/1 55/4/1
f 57/4/1 50/4/1 49/4/1
f 57/5/1 49/5/1 41/5/1
f 58/5/1 52/5/1 51/5/1
f 58/4/1 50/4/1 57/4/1
f 58/5/1 51/5/1 50/5/1
f 59/4/1 54/4/1 53/4/1
f 59/4/1 53/4/1 52/4/1
f 60/5/1 45/5/1 54/5/1
f 60/4/1 54/4/1 59/4/1
f 61/4/1 46/4/1 45/4/1
f 61/5/1 45/5/1 60/5/1
f 62/5/1 56/5/1 55/5/1
f 62/4/1 46/4/1 61/4/1
f 62/5/1 55/5/1 46/5/1
f 63/5/1 57/5/1 41/5/1
f 63/5/1 58/5/1 57/5/1
f 64/4/1 59/4/1 52/4/1
f 64/5/1 58/5/1 63/5/1
f 64/5/1 52/5/1 58/5/1
f 65/5/1 60/5/1 59/5/1
f 65/4/1 59/4/1 64/4/1
f 65/5/1 62/5/1 61/5/1
f 65/5/1 61/5/1 60/5/1
f 66/5/1 56/5/1 62/5/1
f 66/5/1 62/5/1 65/5/1
f 67/2/2 68/2/2 69/2/2
f 69/2/2 68/2/2 70/2/2
f 67/2/2 69/2/2 71/2/2
f 69/1/2 70/1/2 71/1/2
f 70/2/2 68/2/2 72/2/2
f 71/1/2 70/1/2 72/1/2
f 72/2/2 68/2/2 73/2/2
f 73/2/2 68/2/2 74/2/2
f 74/2/2 68/2/2 75/2/2
f 71/2/2 72/2/2 76/2/2
f 72/1/2 73/1/2 76/1/2
f 73/2/2 74/2/2 77/2/2
f 76/1/2 73/1/2 77/1/2
f 74/1/2 75/1/2 78/1/2
f 77/2/2 74/2/2 78/2/2
f 75/2/2 68/2/2 79/2/2
f 78/1/2 75/1/2 79/1/2
f 79/2/2 68/2/2 80/2/2
f 80/2/2 68/2/2 81/2/2
f 77/2/2 78/2/2 82/2/2
f 76/2/2 77/2/2 82/2/2
f 78/2/2 79/2/2 82/2/2
f 79/2/2 80/2/2 82/2/2
f 80/1/2 81/1/2 83/1/2
f 82/2/2 80/2/2 83/2/2
f 81/2/2 68/2/2 84/2/2
f 83/1/2 81/1/2 84/1/2
f 67/2/2 71/2/2 85/2/2
f 76/2/2 82/2/2 85/2/2
f 71/2/2 76/2/2 85/2/2
f 85/2/2 82/2/2 86/2/2
f 82/1/2 83/1/2 87/1/2
f 86/2/2 82/2/2 87/2/2
f 83/2/2 84/2/2 88/2/2
f 87/1/2 83/1/2 88/1/2
f 85/5/2 86/5/2 89/5/2
f 86/2/2 87/2/2 89/2/2
f 87/2/2 88/2/2 89/2/2
f 89/2/2 88/2/2 90/2/2
f 90/2/2 88/2/2 91/2/2
f 91/2/2 88/2/2 92/2/2
f 92/2/2 88/2/2 93/2/2
f 84/2/2 68/2/2 94/2/2
f 93/2/2 88/2/2 94/2/2
f 88/2/2 84/2/2 94/2/2
f 85/5/2 89/5/2 95/5/2
f 89/5/2 90/5/2 95/5/2
f 90/2/2 91/2/2 96/2/2
f 95/5/2 90/5/2 96/5/2
f 91/5/2 92/5/2 97/5/2
f 96/2/2 91/2/2 97/2/2
f 92/2/2 93/2/2 98/2/2
f 97/5/2 92/5/2 98/5/2
f 98/2/2 93/2/2 99/2/2
f 93/5/2 94/5/2 100/5/2
f 100/5/2 94/5/2 101/5/2
f 95/4/2 96/4/2 102/4/2
f 85/5/2 95/5/2 102/5/2
f 96/5/2 97/5/2 103/5/2
f 102/4/2 96/4/2 103/4/2
f 99/2/2 93/2/2 104/2/2
f 98/5/2 99/5/2 104/5/2
f 93/5/2 100/5/2 105/5/2
f 104/2/2 93/2/2 105/2/2
f 100/2/2 101/2/2 106/2/2
f 105/5/2 100/5/2 106/5/2
f 101/5/2 94/5/2 107/5/2
f 106/2/2 101/2/2 107/2/2
f 107/5/2 94/5/2 108/5/2
f 103/5/2 97/5/2 109/5/2
f 97/4/2 98/4/2 109/4/2
f 102/5/2 103/5/2 109/5/2
f 105/5/2 106/5/2 110/5/2
f 109/4/2 98/4/2 110/4/2
f 104/5/2 105/5/2 110/5/2
f 98/5/2 104/5/2 110/5/2
f 106/5/2 107/5/2 110/5/2
f 110/5/2 107/5/2 111/5/2
f 107/4/2 108/4/2 112/4/2
f 111/5/2 107/5/2 112/5/2
f 112/4/2 108/4/2 113/4/2
f 85/5/2 102/5/2 114/5/2
f 102/5/2 109/5/2 114/5/2
f 110/5/2 111/5/2 114/5/2
f 109/5/2 110/5/2 114/5/2
f 111/4/2 112/4/2 115/4/2
f 114/5/2 111/5/2 115/5/2
f 112/5/2 113/5/2 116/5/2
f 115/4/2 112/4/2 116/4/2
f 116/5/2 113/5/2 117/5/2
f 124/2/3 119/2/3 118/2/3
f 124/1/3 120/1/3 119/1/3
f 125/2/3 121/2/3 120/2/3
f 125/1/3 120/1/3 124/1/3
f 126/4/3 122/4/3 121/4/3
f 126/2/3 121/2/3 125/2/3
f 127/5/3 123/5/3 122/5/3
f 127/4/3 122/4/3 126/4/3
f 128/5/3 123/5/3 127/5/3
f 129/5/3 123/5/3 128/5/3
f 130/2/3 126/2/3 125/2/3
f 130/2/3 125/2/3 124/2/3
f 130/2/3 124/2/3 118/2/3
f 130/2/3 127/2/3 126/2/3
f 131/2/3 127/2/3 130/2/3
f 132/5/3 128/5/3 127/5/3
f 132/2/3 127/2/3 131/2/3
f 133/4/3 129/4/3 128/4/3
f 133/5/3 128/5/3 132/5/3
f 134/2/3 132/2/3 131/2/3
f 134/2/3 133/2/3 132/2/3
f 135/4/3 129/4/3 133/4/3
f 135/2/3 133/2/3 134/2/3
f 136/1/3 131/1/3 130/1/3
f 136/2/3 130/2/3 118/2/3
f 137/2/3 134/2/3 131/2/3
f 137/1/3 131/1/3 136/1/3
f 138/2/3 134/2/3 137/2/3
f 139/5/3 135/5/3 134/5/3
f 139/2/3 134/2/3 138/2/3
f 140/4/3 129/4/3 135/4/3
f 140/5/3 135/5/3 139/5/3
f 141/5/3 123/5/3 129/5/3
f 141/4/3 129/4/3 140/4/3
f 142/5/3 140/5/3 139/5/3
f 142/5/3 139/5/3 138/5/3
f 142/5/3 141/5/3 140/5/3
f 142/2/3 137/2/3 136/2/3
f 142/2/3 138/2/3 137/2/3
f 143/5/3 141/5/3 142/5/3
f 144/5/3 141/5/3 143/5/3
f 145/2/3 142/2/3 136/2/3
f 145/2/3 143/2/3 142/2/3
f 146/4/3 144/4/3 143/4/3
f 146/2/3 143/2/3 145/2/3
f 147/5/3 141/5/3 144/5/3
f 147/4/3 144/4/3 146/4/3
f 148/5/3 123/5/3 141/5/3
f 148/5/3 141/5/3 147/5/3
f 149/5/3 146/5/3 145/5/3
f 149/2/3 145/2/3 136/2/3
f 150/5/3 146/5/3 149/5/3
f 151/4/3 147/4/3 146/4/3
f 151/5/3 146/5/3 150/5/3
f 151/4/3 148/4/3 147/4/3
f 152/5/3 123/5/3 148/5/3
f 152/4/3 148/4/3 151/4/3
f 153/2/3 150/2/3 149/2/3
f 153/5/3 151/5/3 150/5/3
f 153/5/3 152/5/3 151/5/3
f 154/5/3 152/5/3 153/5/3
f 155/5/3 123/5/3 152/5/3
f 155/5/3 152/5/3 154/5/3
f 156/2/3 154/2/3 153/2/3
f 156/2/3 149/2/3 136/2/3
f 156/2/3 153/2/3 149/2/3
f 157/4/3 155/4/3 154/4/3
f 157/2/3 154/2/3 156/2/3
f 158/5/3 123/5/3 155/5/3
f 158/4/3 155/4/3 157/4/3
f 159/2/3 136/2/3 118/2/3
f 159/2/3 156/2/3 136/2/3
f 160/5/3 157/5/3 156/5/3
f 160/2/3 156/2/3 159/2/3
f 160/5/3 158/5/3 157/5/3
f 161/5/3 123/5/3 158/5/3
f 161/5/3 158/5/3 160/5/3
f 162/2/4 163/2/4 168/2/4
f 168/2/4 163/2/4 169/2/4
f 169/2/4 163/2/4 170/2/4
f 163/1/4 164/1/4 171/1/4
f 170/2/4 163/2/4 171/2/4
f 164/2/4 165/2/4 172/2/4
f 171/1/4 164/1/4 172/1/4
f 172/2/4 165/2/4 173/2/4
f 165/4/4 166/4/4 174/4/4
f 173/2/4 165/2/4 174/2/4
f 166/5/4 167/5/4 175/5/4
f 174/4/4 166/4/4 175/4/4
f 168/1/4 169/1/4 176/1/4
f 169/2/4 170/2/4 177/2/4
f 176/1/4 169/1/4 177/1/4
f 170/1/4 171/1/4 178/1/4
f 177/2/4 170/2/4 178/2/4
f 172/2/4 173/2/4 179/2/4
f 178/1/4 171/1/4 179/1/4
f 171/2/4 172/2/4 179/2/4
f 173/5/4 174/5/4 180/5/4
f 179/2/4 173/2/4 180/2/4
f 174/5/4 175/5/4 180/5/4
f 180/5/4 175/5/4 181/5/4
f 175/5/4 167/5/4 182/5/4
f 181/5/4 175/5/4 182/5/4
f 182/5/4 167/5/4 183/5/4
f 178/2/4 179/2/4 184/2/4
f 176/2/4 177/2/4 184/2/4
f 177/2/4 178/2/4 184/2/4
f 180/2/4 181/2/4 184/2/4
f 179/2/4 180/2/4 184/2/4
f 184/2/4 181/2/4 185/2/4
f 185/2/4 181/2/4 186/2/4
f 181/5/4 182/5/4 187/5/4
f 186/2/4 181/2/4 187/2/4
f 182/4/4 183/4/4 188/4/4
f 187/5/4 182/5/4 188/5/4
f 183/5/4 167/5/4 189/5/4
f 188/4/4 183/4/4 189/4/4
f 176/2/4 184/2/4 190/2/4
f 184/1/4 185/1/4 190/1/4
f 185/2/4 186/2/4 191/2/4
f 190/1/4 185/1/4 191/1/4
f 187/4/4 188/4/4 192/4/4
f 186/5/4 187/5/4 192/5/4
f 188/5/4 189/5/4 193/5/4
f 192/4/4 188/4/4 193/4/4
f 191/2/4 186/2/4 194/2/4
f 190/2/4 191/2/4 194/2/4
f 194/2/4 186/2/4 195/2/4
f 192/5/4 193/5/4 196/5/4
f 195/2/4 186/2/4 196/2/4
f 186/5/4 192/5/4 196/5/4
f 196/5/4 193/5/4 197/5/4
f 194/1/4 195/1/4 198/1/4
f 190/2/4 194/2/4 198/2/4
f 196/2/4 197/2/4 199/2/4
f 198/1/4 195/1/4 199/1/4
f 195/2/4 196/2/4 199/2/4
f 199/2/4 197/2/4 200/2/4
f 197/5/4 193/5/4 201/5/4
f 200/2/4 197/2/4 201/2/4
f 193/5/4 189/5/4 202/5/4
f 201/5/4 193/5/4 202/5/4
f 189/5/4 167/5/4 203/5/4
f 202/5/4 189/5/4 203/5/4
f 199/2/4 200/2/4 204/2/4
f 176/2/4 190/2/4 204/2/4
f 190/2/4 198/2/4 204/2/4
f 198/2/4 199/2/4 204/2/4
f 204/2/4 200/2/4 205/2/4
f 205/2/4 200/2/4 206/2/4
f 206/2/4 200/2/4 207/2/4
f 200/5/4 201/5/4 208/5/4
f 207/2/4 200/2/4 208/2/4
f 201/5/4 202/5/4 208/5/4
f 208/5/4 202/5/4 209/5/4
f 202/4/4 203/4/4 210/4/4
f 209/5/4 202/5/4 210/5/4
f 203/5/4 167/5/4 211/5/4
f 210/4/4 203/4/4 211/4/4
f 176/2/4 204/2/4 212/2/4
f 204/1/4 205/1/4 212/1/4
f 205/2/4 206/2/4 213/2/4
f 212/1/4 205/1/4 213/1/4
f 206/1/4 207/1/4 214/1/4
f 213/2/4 206/2/4 214/2/4
f 208/2/4 209/2/4 215/2/4
f 214/1/4 207/1/4 215/1/4
f 207/2/4 208/2/4 215/2/4
f 215/2/4 209/2/4 216/2/4
f 209/5/4 210/5/4 217/5/4
f 216/2/4 209/2/4 217/2/4
f 210/5/4 211/5/4 217/5/4
f 217/5/4 211/5/4 218/5/4
f 211/5/4 167/5/4 219/5/4
f 218/5/4 211/5/4 219/5/4
f 212/2/4 213/2/4 220/2/4
f 215/2/4 216/2/4 220/2/4
f 213/2/4 214/2/4 220/2/4
f 176/2/4 212/2/4 220/2/4
f 214/2/4 215/2/4 220/2/4
f 216/5/4 217/5/4 221/5/4
f 220/2/4 216/2/4 221/2/4
f 217/5/4 218/5/4 221/5/4
f 218/4/4 219/4/4 222/4/4
f 221/5/4 218/5/4 222/5/4
f 219/5/4 167/5/4 223/5/4
f 222/4/4 219/4/4 223/4/4
f 223/5/4 167/5/4 224/5/4
f 227/2/5 226/2/5 225/2/5
f 228/2/5 226/2/5 227/2/5
f 229/1/5 228/1/5 227/1/5
f 230/2/5 226/2/5 228/2/5
f 230/1/5 228/1/5 229/1/5
f 231/2/5 230/2/5 229/2/5
f 231/2/5 226/2/5 230/2/5
f 232/2/5 226/2/5 231/2/5
f 233/2/5 231/2/5 229/2/5
f 234/1/5 232/1/5 231/1/5
f 234/2/5 231/2/5 233/2/5
f 235/2/5 226/2/5 232/2/5
f 235/1/5 232/1/5 234/1/5
f 236/2/5 226/2/5 235/2/5
f 237/5/6 238/5/6 239/5/6
f 239/5/6 238/5/6 240/5/6
f 239/4/6 240/4/6 241/4/6
f 240/5/6 238/5/6 242/5/6
f 241/4/6 240/4/6 242/4/6
f 237/5/6 239/5/6 243/5/6
f 243/5/6 239/5/6 244/5/6
f 239/4/6 241/4/6 245/4/6
f 244/5/6 239/5/6 245/5/6
f 241/5/6 242/5/6 246/5/6
f 245/4/6 241/4/6 246/4/6
f 237/5/6 243/5/6 247/5/6
f 247/5/6 243/5/6 248/5/6
f 243/4/6 244/4/6 249/4/6
f 244/5/6 245/5/6 249/5/6
f 245/5/6 246/5/6 249/5/6
f 249/5/6 246/5/6 250/5/6
f 246/5/6 242/5/6 251/5/6
f 250/5/6 246/5/6 251/5/6
f 242/5/6 238/5/6 252/5/6
f 251/5/6 242/5/6 252/5/6
f 247/4/6 248/4/6 253/4/6
f 248/5/6 243/5/6 254/5/6
f 253/4/6 248/4/6 254/4/6
f 249/4/6 250/4/6 255/4/6
f 254/5/6 243/5/6 255/5/6
f 243/4/6 249/4/6 255/4/6
f 250/5/6 251/5/6 256/5/6
f 255/4/6 250/4/6 256/4/6
f 251/4/6 252/4/6 257/4/6
f 256/5/6 251/5/6 257/5/6
f 257/4/6 252/4/6 258/4/6
f 254/5/6 255/5/6 259/5/6
f 258/4/6 252/4/6 259/4/6
f 257/5/6 258/5/6 259/5/6
f 256/5/6 257/5/6 259/5/6
f 255/5/6 256/5/6 259/5/6
f 253/5/6 254/5/6 259/5/6
f 252/5/6 238/5/6 260/5/6
f 259/4/6 252/4/6 260/4/6
f 253/5/6 259/5/6 261/5/6
f 259/5/6 260/5/6 261/5/6
f 261/5/6 260/5/6 262/5/6
f 260/5/6 238/5/6 263/5/6
f 262/5/6 260/5/6 263/5/6
f 263/5/6 238/5/6 264/5/6
f 253/5/6 261/5/6 265/5/6
f 265/5/6 261/5/6 266/5/6
f 253/5/6 265/5/6 267/5/6
f 265/4/6 266/4/6 267/4/6
f 266/5/6 261/5/6 268/5/6
f 267/4/6 266/4/6 268/4/6
f 261/4/6 262/4/6 269/4/6
f 268/5/6 261/5/6 269/5/6
f 262/5/6 263/5/6 270/5/6
f 269/4/6 262/4/6 270/4/6
f 263/4/6 264/4/6 271/4/6
f 270/5/6 263/5/6 271/5/6
f 271/4/6 264/4/6 272/4/6
f 267/5/6 268/5/6 273/5/6
f 268/5/6 269/5/6 273/5/6
f 271/5/6 272/5/6 273/5/6
f 270/5/6 271/5/6 273/5/6
f 253/5/6 267/5/6 273/5/6
f 269/5/6 270/5/6 273/5/6
f 273/5/6 272/5/6 274/5/6
